<?xml version="1.0" standalone="no"?>
<!DOCTYPE svg PUBLIC "-//W3C//DTD SVG 20010904//EN"
 "http://www.w3.org/TR/2001/REC-SVG-20010904/DTD/svg10.dtd">
<svg version="1.0" xmlns="http://www.w3.org/2000/svg"
 width="700.000000pt" height="700.000000pt" viewBox="0 0 700.000000 700.000000"
 preserveAspectRatio="xMidYMid meet">
<metadata>
Created by potrace 1.14, written by Peter Selinger 2001-2017
</metadata>
<g transform="translate(0.000000,700.000000) scale(0.100000,-0.100000)"
fill="#000000" stroke="none">
<path d="M1982 6289 c-936 -1506 -1342 -2163 -1342 -2170 0 -5 37 -9 83 -9 45
0 690 -20 1432 -44 743 -25 1351 -43 1353 -41 3 3 -1256 2361 -1328 2489 l-27
48 -171 -273z"/>
<path d="M4791 3385 c-44 -115 -47 -125 -30 -125 6 0 48 -16 92 -36 366 -166
494 -357 432 -649 -22 -102 -58 -207 -148 -420 -104 -250 -143 -359 -172 -478
-58 -240 -37 -435 68 -612 55 -95 190 -228 307 -305 110 -72 279 -156 289
-143 10 11 91 199 91 210 -1 4 -40 27 -88 50 -302 143 -452 327 -452 554 0
149 33 262 178 615 150 363 184 485 184 664 1 309 -172 537 -544 715 -174 83
-158 86 -207 -40z"/>
<path d="M4161 3298 c-5 -13 -23 -60 -41 -106 -17 -45 -30 -87 -28 -92 2 -6
38 -26 81 -45 364 -158 501 -346 453 -620 -21 -121 -50 -206 -166 -490 -162
-396 -195 -522 -187 -715 9 -206 69 -341 222 -495 101 -101 188 -163 352 -248
105 -54 112 -57 122 -39 18 33 91 205 88 208 -1 1 -45 23 -97 49 -339 170
-477 368 -440 635 20 143 51 237 203 601 183 438 203 675 80 912 -50 96 -195
242 -315 315 -73 45 -293 152 -313 152 -3 0 -9 -10 -14 -22z"/>
</g>
</svg>
